<?xml version="1.0" encoding="UTF-8"?>
<svg width="18px" height="18px" viewBox="0 0 18 18" version="1.1" xmlns="http://www.w3.org/2000/svg" xmlns:xlink="http://www.w3.org/1999/xlink">
    <g stroke="none" stroke-width="1" fill="none" fill-rule="evenodd">
        <path d="M15.5,9.5 C15.5,7.5 16.5,6 17,5.5 C16.5,5.5 15.5,5 14.5,5 C13.5,5 12.5,5.5 12,6 C11.5,5.5 10.5,5 9.5,5 C8.5,5 7.5,5.5 7,6 C6.5,5.5 5.5,5 4.5,5 C3.5,5 2.5,5.5 2,6 C1.5,6.5 0.5,8 0.5,10 C0.5,12 1.5,13.5 2,14 C2.5,14.5 3.5,15 4.5,15 C5.5,15 6.5,14.5 7,14 C7.5,14.5 8.5,15 9.5,15 C10.5,15 11.5,14.5 12,14 C12.5,14.5 13.5,15 14.5,15 C15.5,15 16.5,14.5 17,14 C16.5,13.5 15.5,12 15.5,9.5 Z" fill="#000000"></path>
    </g>
</svg> 